<?xml version="1.0" encoding="UTF-8"?>
<svg id="pieces" xmlns="http://www.w3.org/2000/svg" viewBox="0 0 200 200">
  <defs>
    <style>
      .cls-1 {
        fill: #fede3a;
      }

      .cls-2 {
        fill: #1caee4;
      }
    </style>
  </defs>
  <polygon class="cls-2" points="161.49 135.31 161.54 180.78 19.22 181.16 18.84 38.84 65.04 38.8 65.04 20.02 0 20.1 .47 200 180.38 199.53 180.29 135.31 161.49 135.31"/>
  <path class="cls-1" d="M151.77,66.32h-23.54c-1.73,0-2.6-.87-2.6-2.6v-7.31c0-1.82.87-2.72,2.6-2.72h23.54c1.74,0,2.6.91,2.6,2.72v7.31c0,1.73-.87,2.6-2.6,2.6Z"/>
  <polygon class="cls-1" points="80 0 112.74 0 112.74 18.41 98.41 18.41 98.41 101.59 181.59 101.59 181.59 87.26 200 87.26 200 120 80 120 80 0"/>
</svg>