<?xml version="1.0" encoding="UTF-8"?>
<svg id="pieces" xmlns="http://www.w3.org/2000/svg" viewBox="0 0 200 200">
  <defs>
    <style>
      .cls-1 {
        fill: #fede3a;
      }

      .cls-2 {
        fill: #1caee4;
      }
    </style>
  </defs>
  <path class="cls-2" d="M84.59,115.59h16.51c1.05,0,1.77.23,2.18.67.4.45.6,1.2.6,2.25v6.79c0,1.86-.93,2.79-2.79,2.79h-16.51v16.75c0,1.94-.97,2.91-2.91,2.91h-7.16c-1.94,0-2.91-.97-2.91-2.91v-16.75h-16.5c-1.86,0-2.79-.93-2.79-2.79v-6.79c0-1.06.2-1.8.61-2.25.4-.44,1.13-.67,2.18-.67h16.5v-16.62c0-1.94.98-2.91,2.91-2.91h7.16c1.94,0,2.91.97,2.91,2.91v16.62Z"/>
  <polygon class="cls-1" points="200 120 167.26 120 167.26 101.59 181.59 101.59 181.59 18.41 98.41 18.41 98.41 32.74 80 32.74 80 0 200 0 200 120"/>
  <polygon class="cls-2" points="0 43.81 0 84.66 18.41 84.66 18.41 62.22 137.77 62.22 137.77 181.59 115.34 181.59 115.34 200 156.19 200 156.19 43.81 0 43.81"/>
</svg>