<?xml version="1.0" encoding="UTF-8"?>
<svg id="pieces" xmlns="http://www.w3.org/2000/svg" viewBox="0 0 200 200">
  <defs>
    <style>
      .cls-1 {
        fill: #fede3a;
      }
    </style>
  </defs>
  <path class="cls-1" d="M110.45,37.13l75.69-19.41,13.86,76.9-12.81,2.32-9.77-54.29c-25.01,40.35-19.42,93.53,14.85,127.8l-12.27,12.27c-38.81-38.81-46.04-98.38-19.79-144.92l-46.54,11.94-3.23-12.62Z"/>
  <g>
    <path class="cls-1" d="M15.22,102.18H.98c-.65,0-.98-.32-.98-.98v-2.3c0-.65.32-.98.98-.98h14.25c.65,0,.98.33.98.98v2.3c0,.65-.33.98-.98.98Z"/>
    <path class="cls-1" d="M21.3,87.1v-2.79c0-.7.28-1.21.84-1.54l8.1-4.68c.74-.42,1.35-.63,1.82-.63h2.93c.65,0,.98.33.98.98v42.95c0,.65-.33.98-.98.98h-3.14c-.65,0-.98-.33-.98-.98v-38.48l-8.31,4.75c-.84.47-1.26.28-1.26-.56Z"/>
    <path class="cls-1" d="M60.89,97.78h-5.17c-1.96,0-3.24.57-3.84,1.71-.61,1.14-1.21,1.71-1.82,1.71h-3.21c-.65,0-.98-.32-.98-.98v-21.79c0-.65.32-.98.98-.98h23.11c.7,0,1.05.33,1.05.98v2.79c0,.65-.35.98-1.05.98h-18.99v14.87c.88-2.33,2.86-3.49,5.94-3.49h5.03c3.17,0,5.62.86,7.37,2.58s2.62,4.19,2.62,7.4v8.45c0,3.26-.91,5.8-2.72,7.61-1.82,1.82-4.33,2.72-7.54,2.72h-5.73c-3.21,0-5.74-.91-7.58-2.72-1.84-1.81-2.76-4.35-2.76-7.61v-2.16c0-.7.32-1.05.98-1.05h3.14c.65,0,.98.35.98,1.05v2.09c0,4.05,1.93,6.08,5.8,6.08h4.54c3.96,0,5.94-2.02,5.94-6.08v-7.75c0-2.19-.49-3.81-1.47-4.85-.98-1.05-2.51-1.57-4.61-1.57Z"/>
    <path class="cls-1" d="M88.48,86.68h-3.35c-2.28,0-3.42-1.14-3.42-3.42v-6.77c0-2.19,1.14-3.28,3.42-3.28h3.35c1.07,0,1.92.29,2.55.87.63.58.94,1.39.94,2.41v6.77c0,1.07-.31,1.91-.94,2.51s-1.48.91-2.55.91ZM87.29,84.3c.79,0,1.33-.14,1.61-.42.28-.28.42-.81.42-1.61v-4.54c0-.84-.14-1.39-.42-1.64-.28-.25-.82-.38-1.61-.38h-.91c-.84,0-1.39.13-1.64.38-.26.26-.38.8-.38,1.64v4.54c0,.79.13,1.33.38,1.61.26.28.8.42,1.64.42h.91Z"/>
  </g>
</svg>