<?xml version="1.0" encoding="UTF-8"?>
<svg id="pieces" xmlns="http://www.w3.org/2000/svg" viewBox="0 0 200 200">
  <defs>
    <style>
      .cls-1 {
        fill: #1caee4;
      }
    </style>
  </defs>
  <path class="cls-1" d="M89.55,37.13L13.86,17.72,0,94.62l12.81,2.32,9.77-54.29c25.01,40.35,19.42,93.53-14.85,127.8l12.27,12.27c38.81-38.81,46.04-98.38,19.79-144.92l46.54,11.94,3.23-12.62Z"/>
  <g>
    <path class="cls-1" d="M110.61,97.78h10.48c.69,0,1.04.35,1.04,1.04v2.23c0,.66-.35.98-1.04.98h-10.48v10.61c0,.74-.35,1.12-1.05,1.12h-2.37c-.7,0-1.05-.37-1.05-1.12v-10.61h-10.55c-.7,0-1.05-.33-1.05-.98v-2.23c0-.69.35-1.04,1.05-1.04h10.55v-10.55c0-.74.35-1.12,1.05-1.12h2.37c.7,0,1.05.37,1.05,1.12v10.55Z"/>
    <path class="cls-1" d="M129.32,87.1v-2.79c0-.7.28-1.21.84-1.53l8.1-4.68c.74-.42,1.35-.63,1.81-.63h2.93c.65,0,.98.33.98.98v42.95c0,.65-.33.98-.98.98h-3.14c-.65,0-.98-.33-.98-.98v-38.48l-8.31,4.75c-.84.47-1.26.28-1.26-.56Z"/>
    <path class="cls-1" d="M168.93,97.78h-5.17c-1.96,0-3.24.57-3.84,1.71s-1.21,1.71-1.82,1.71h-3.21c-.65,0-.98-.33-.98-.98v-21.79c0-.65.33-.98.98-.98h23.12c.69,0,1.04.33,1.04.98v2.79c0,.66-.35.98-1.04.98h-19v14.87c.88-2.33,2.87-3.49,5.94-3.49h5.03c3.17,0,5.63.86,7.37,2.58,1.75,1.72,2.62,4.19,2.62,7.4v8.45c0,3.26-.91,5.8-2.72,7.62-1.82,1.81-4.33,2.72-7.54,2.72h-5.73c-3.21,0-5.74-.91-7.58-2.72-1.84-1.82-2.76-4.36-2.76-7.62v-2.16c0-.7.33-1.05.98-1.05h3.14c.66,0,.98.35.98,1.05v2.09c0,4.05,1.93,6.08,5.8,6.08h4.54c3.96,0,5.94-2.03,5.94-6.08v-7.75c0-2.19-.49-3.8-1.46-4.85-.98-1.05-2.52-1.57-4.61-1.57Z"/>
    <path class="cls-1" d="M196.51,86.68h-3.35c-2.28,0-3.42-1.14-3.42-3.42v-6.77c0-2.19,1.14-3.28,3.42-3.28h3.35c1.07,0,1.92.29,2.55.87s.94,1.38.94,2.41v6.77c0,1.07-.32,1.91-.94,2.52s-1.48.91-2.55.91ZM195.32,84.3c.79,0,1.33-.14,1.61-.42.28-.28.42-.82.42-1.61v-4.54c0-.84-.14-1.39-.42-1.64-.28-.26-.82-.38-1.61-.38h-.91c-.84,0-1.38.13-1.64.38-.26.25-.38.8-.38,1.64v4.54c0,.79.13,1.33.38,1.61.26.28.8.42,1.64.42h.91Z"/>
  </g>
</svg>