<?xml version="1.0" encoding="UTF-8"?>
<svg id="pieces" xmlns="http://www.w3.org/2000/svg" version="1.1" viewBox="0 0 200 200">
  <!-- Generator: Adobe Illustrator 30.4.0, SVG Export Plug-In . SVG Version: 2.1.4 Build 226)  -->
  <defs>
    <style>
      .st0 {
        fill: #fede3a;
      }

      .st1 {
        fill: #1caee4;
      }
    </style>
  </defs>
  <polygon class="st1" points="19.2 90.2 18.8 19 89.9 18.6 89.9 -.2 0 .3 .5 90.2 19.2 90.2"/>
  <polygon class="st0" points="180.6 79.8 181 180.9 80 181.3 80 200.1 199.9 199.7 199.4 79.8 180.6 79.8"/>
  <path class="st1" d="M148.9,157.8L42.2,51.1c-1.2-1.2-1.2-2.5,0-3.7l5.2-5.2c1.3-1.3,2.5-1.3,3.8,0l106.6,106.6c1.2,1.2,1.2,2.5,0,3.8l-5.2,5.2c-1.2,1.2-2.5,1.2-3.7,0h0Z"/>
</svg>