<?xml version="1.0" encoding="UTF-8"?>
<svg id="pieces" xmlns="http://www.w3.org/2000/svg" version="1.1" viewBox="0 0 200 200">
  <!-- Generator: Adobe Illustrator 30.4.0, SVG Export Plug-In . SVG Version: 2.1.4 Build 226)  -->
  <defs>
    <style>
      .st0 {
        fill: #fede3a;
      }

      .st1 {
        fill: #1caee4;
      }
    </style>
  </defs>
  <path d="M177.5,62.2l-1-2.3-18.3,8.1,1,2.3c7,15.8,7.5,33.4,1.3,49.6-6.2,16.2-18.3,29-34.1,36-15.8,7-33.4,7.5-49.6,1.3-16.2-6.2-28.9-18.3-36-34.1-7-15.8-7.5-33.4-1.3-49.6,4.4-11.4,11.7-21.2,21.3-28.4l-1.5,19.9,19.9,1.5,4.1-53.2-53.2-4.1-1.5,19.9,18.4,1.4c-11.7,9.4-20.7,21.7-26.1,35.8-8.1,21.1-7.5,44.2,1.7,64.9s25.9,36.5,47.1,44.7c9.8,3.8,20,5.7,30.4,5.7,11.9,0,23.5-2.5,34.5-7.4,20.7-9.2,36.5-25.9,44.7-47.1,8.1-21.1,7.5-44.2-1.7-64.9Z"/>
  <circle class="st1" cx="100" cy="100" r="28.3"/>
  <path class="st0" d="M175.2,63.2l-13.7,6.1c15.1,33.9-.2,73.8-34.1,88.9-16.4,7.3-34.7,7.8-51.5,1.4-16.8-6.4-30.1-19-37.4-35.4-7.3-16.4-7.8-34.7-1.4-51.5,5.2-13.6,14.5-24.9,26.6-32.6l-1.8,22.7,15,1.2,3.7-48.3-48.3-3.7-1.2,15,22.6,1.8c-13.9,9.4-24.6,22.7-30.7,38.7-7.9,20.5-7.3,42.9,1.7,63,8.9,20.1,25.2,35.5,45.7,43.3,9.6,3.7,19.5,5.5,29.5,5.5,11.4,0,22.8-2.4,33.5-7.2,20.1-8.9,35.5-25.2,43.3-45.7,7.9-20.5,7.3-42.9-1.7-63Z"/>
</svg>