<?xml version="1.0" encoding="UTF-8"?>
<svg id="base" xmlns="http://www.w3.org/2000/svg" xmlns:xlink="http://www.w3.org/1999/xlink" viewBox="0 0 170 170">
  <defs>
    <style>
      .cls-1, .cls-2, .cls-3, .cls-4 {
        fill: none;
      }

      .cls-5, .cls-6 {
        fill: #1cc2eb;
      }

      .cls-2 {
        opacity: .4;
      }

      .cls-2, .cls-3, .cls-4 {
        stroke-width: 2px;
      }

      .cls-2, .cls-4 {
        stroke: #1cc2eb;
        stroke-linecap: round;
        stroke-linejoin: round;
      }

      .cls-3 {
        stroke: #fede3a;
        stroke-dasharray: 44 10 11 3;
        stroke-miterlimit: 10;
      }

      .cls-7 {
        fill: #2a3c43;
        opacity: .75;
      }

      .cls-8 {
        opacity: .1;
      }

      .cls-9 {
        clip-path: url(#clippath);
      }

      .cls-6 {
        opacity: .5;
      }
    </style>
    <clipPath id="clippath">
      <rect class="cls-1" x="2.5" y="2.5" width="165" height="165"/>
    </clipPath>
  </defs>
  <rect class="cls-7" x="14.17" y="14.17" width="141.66" height="141.66"/>
  <g class="cls-8">
    <g class="cls-9">
      <polygon class="cls-5" points="-135.74 -87.42 -145.68 -77.47 16.79 85 -145.68 247.47 -135.74 257.42 36.68 85 -135.74 -87.42"/>
      <polygon class="cls-5" points="-101.35 -87.42 -111.3 -77.47 51.18 85 -111.3 247.47 -101.35 257.42 71.07 85 -101.35 -87.42"/>
      <polygon class="cls-5" points="-66.97 -87.42 -76.91 -77.47 85.56 85 -76.91 247.47 -66.97 257.42 105.45 85 -66.97 -87.42"/>
      <polygon class="cls-5" points="-32.58 -87.42 -42.53 -77.47 119.95 85 -42.53 247.47 -32.58 257.42 139.84 85 -32.58 -87.42"/>
      <polygon class="cls-5" points="1.8 -87.42 -8.14 -77.47 154.33 85 -8.14 247.47 1.8 257.42 174.22 85 1.8 -87.42"/>
      <polygon class="cls-5" points="36.19 -87.42 26.24 -77.47 188.72 85 26.24 247.47 36.19 257.42 208.61 85 36.19 -87.42"/>
      <polygon class="cls-5" points="70.57 -87.42 60.63 -77.47 223.1 85 60.63 247.47 70.57 257.42 242.99 85 70.57 -87.42"/>
    </g>
  </g>
  <g>
    <polyline class="cls-2" points="14.17 77.78 14.17 14.17 41.69 14.17"/>
    <polyline class="cls-2" points="155.83 102.01 155.83 155.83 124.7 155.83"/>
    <polyline class="cls-2" points="131.4 14.17 155.83 14.17 155.83 61.28"/>
    <polyline class="cls-4" points="77.39 2.5 167.5 2.5 167.5 167.5 2.5 167.5 2.5 118.87"/>
    <polyline class="cls-4" points="2.5 90.68 2.5 2.5 52.99 2.5"/>
  </g>
  <polygon class="cls-6" points="127 85.02 69.77 51.98 69.77 71.15 44.87 71.15 44.87 98.89 69.77 98.89 69.77 118.05 127 85.02"/>
  <polygon class="cls-3" points="127 85.02 69.77 51.98 69.77 71.15 44.87 71.15 44.87 98.89 69.77 98.89 69.77 118.05 127 85.02"/>
</svg>