<?xml version="1.0" encoding="UTF-8"?>
<svg id="base" xmlns="http://www.w3.org/2000/svg" viewBox="0 0 100 100">
  <defs>
    <style>
      .cls-1 {
        fill: #1cc2eb;
      }

      .cls-2, .cls-3 {
        fill: none;
        stroke: #1cc2eb;
        stroke-linecap: round;
        stroke-linejoin: round;
      }

      .cls-3 {
        opacity: .4;
      }
    </style>
  </defs>
  <path class="cls-1" d="M50,43.71c-3.48,0-6.29,2.82-6.29,6.29s2.82,6.29,6.29,6.29,6.29-2.82,6.29-6.29-2.82-6.29-6.29-6.29Z"/>
  <path class="cls-2" d="M50,18.71c-17.28,0-31.29,14.01-31.29,31.29s14.01,31.29,31.29,31.29,31.29-14.01,31.29-31.29-14.01-31.29-31.29-31.29Z"/>
  <polyline class="cls-3" points="86.2 74.77 86.2 86.2 70.29 86.2"/>
  <polyline class="cls-3" points="73.71 13.8 86.2 13.8 86.2 37.88"/>
  <polyline class="cls-2" points="27.91 92.16 7.84 92.16 7.84 7.84 55.64 7.84"/>
  <path class="cls-2" d="M33.84,86.2c-3.29,0-5.96,2.67-5.96,5.96s2.67,5.96,5.96,5.96,5.96-2.67,5.96-5.96-2.67-5.96-5.96-5.96Z"/>
  <path class="cls-2" d="M62.29,1.88c-3.29,0-5.96,2.67-5.96,5.96s2.67,5.96,5.96,5.96,5.96-2.67,5.96-5.96-2.67-5.96-5.96-5.96Z"/>
  <polyline class="cls-2" points="68.55 7.84 92.16 7.84 92.16 92.16 40.97 92.16"/>
</svg>