<?xml version="1.0" encoding="UTF-8"?>
<svg id="base" xmlns="http://www.w3.org/2000/svg" viewBox="0 0 100 100">
  <defs>
    <style>
      .cls-1 {
        fill: #1cc2eb;
      }

      .cls-2, .cls-3 {
        fill: none;
        stroke: #1cc2eb;
        stroke-linecap: round;
        stroke-linejoin: round;
      }

      .cls-3 {
        opacity: .4;
      }
    </style>
  </defs>
  <polygon class="cls-2" points="58.17 61.79 37.74 50 58.17 38.21 58.17 61.79"/>
  <path class="cls-1" d="M60.67,63.41c-1.91,0-3.46,1.55-3.46,3.46s1.55,3.46,3.46,3.46,3.46-1.55,3.46-3.46-1.55-3.46-3.46-3.46Z"/>
  <path class="cls-1" d="M30.87,46.28c-1.91,0-3.46,1.55-3.46,3.46s1.55,3.46,3.46,3.46,3.46-1.55,3.46-3.46-1.55-3.46-3.46-3.46Z"/>
  <path class="cls-1" d="M60.65,29.41c-1.91,0-3.46,1.55-3.46,3.46s1.55,3.46,3.46,3.46,3.46-1.55,3.46-3.46-1.55-3.46-3.46-3.46Z"/>
  <polyline class="cls-3" points="39.8 86.2 13.8 86.2 13.8 72.45"/>
  <polyline class="cls-3" points="13.8 46.31 13.8 13.8 27.87 13.8"/>
  <polyline class="cls-3" points="86.2 58.7 86.2 86.2 70.29 86.2"/>
  <polyline class="cls-3" points="73.72 13.8 86.2 13.8 86.2 37.88"/>
  <polyline class="cls-2" points="46.11 7.84 92.16 7.84 92.16 92.16 7.84 92.16 7.84 67.31"/>
  <path class="cls-2" d="M7.84,54.24c-3.29,0-5.96,2.67-5.96,5.96s2.67,5.96,5.96,5.96,5.96-2.67,5.96-5.96-2.67-5.96-5.96-5.96Z"/>
  <path class="cls-2" d="M39.8,1.88c-3.29,0-5.96,2.67-5.96,5.96s2.67,5.96,5.96,5.96,5.96-2.67,5.96-5.96-2.67-5.96-5.96-5.96Z"/>
  <polyline class="cls-2" points="7.84 52.9 7.84 7.84 33.64 7.84"/>
</svg>