<?xml version="1.0" encoding="UTF-8"?>
<svg xmlns="http://www.w3.org/2000/svg" xmlns:xlink="http://www.w3.org/1999/xlink" viewBox="0 0 500 500">
  <defs>
    <style>
      .cls-1 {
        fill: #e7ad27;
      }

      .cls-2 {
        opacity: .43;
      }

      .cls-2, .cls-3, .cls-4 {
        mix-blend-mode: overlay;
      }

      .cls-2, .cls-4 {
        fill: #fff;
      }

      .cls-5 {
        fill: #101821;
        mix-blend-mode: soft-light;
      }

      .cls-6 {
        fill: #a5781e;
      }

      .cls-7 {
        isolation: isolate;
      }

      .cls-3 {
        fill: #273c4f;
        opacity: .5;
      }

      .cls-8 {
        fill: url(#linear-gradient);
      }
    </style>
    <linearGradient id="linear-gradient" x1="165.28" y1="1167.55" x2="339.86" y2="982.96" gradientTransform="translate(0 1269.78) scale(1 -1)" gradientUnits="userSpaceOnUse">
      <stop offset="0" stop-color="#ffea2f"/>
      <stop offset="1" stop-color="#e9a900"/>
    </linearGradient>
  </defs>
  <g class="cls-7">
    <g id="base">
      <g>
        <path class="cls-4" d="M478.64,263.07h-53.92c16.86-39.87,27.3-82.27,29.65-120.93l2.15-35.27-34.69-6.7c-.98-.19-1.95-.41-2.92-.66l20.96-51.22-55.12,26.18c-2.35-3.64-3.68-6.48-4.14-7.52l-10.5-24.21h-240.21l-10.52,24.21c-.61,1.39-2.47,5.35-5.87,10.11l-60.58-28.78,21.52,52.61-30.97,5.98,2.15,35.26c2.35,38.66,12.78,81.06,29.65,120.93H21.36l113.82,149.11h49.68c14.15,11.88,28.92,22.6,43.92,31.91l21.21,13.16,21.22-13.16c15.05-9.33,29.81-20.06,43.92-31.91h49.67l113.82-149.11Z"/>
        <polygon class="cls-1" points="41.9 273.13 86.74 330.96 413.27 330.96 458.11 273.13 41.9 273.13"/>
        <polygon class="cls-1" points="95.27 344.3 140.11 402.12 359.89 402.12 404.73 344.3 95.27 344.3"/>
        <g>
          <polygon class="cls-3" points="79.84 322.06 86.74 330.96 413.26 330.96 420.16 322.06 79.84 322.06"/>
          <polygon class="cls-3" points="133.22 393.23 140.12 402.12 359.89 402.12 366.79 393.23 133.22 393.23"/>
        </g>
        <path class="cls-1" d="M419.92,110.05c-5.33-1.03-9.96-2.72-14.29-4.64l15.09-36.88-39.16,18.6c-5.51-6.68-8.78-12.98-10.16-16.16l-7.89-18.15h-227.01l-7.89,18.15c-1.55,3.57-5.41,11.04-12.25,18.59l-44.27-21.03,16.06,39.25c-2.59.85-5.17,1.72-8.06,2.27l-26.02,5.02,1.61,26.45c5.35,87.9,55.29,217.65,178.42,294.02l15.91,9.87,15.91-9.87c123.13-76.36,173.06-206.11,178.41-294.02l1.61-26.45-26.02-5.02Z"/>
        <path class="cls-8" d="M146.93,68.53c-4.91,18.03-26.75,54.94-74.85,58.4,0,64.17,35.58,213.5,177.92,297.43,142.33-83.93,177.92-233.26,177.92-297.43-48.1-3.46-69.94-40.38-74.85-58.4h-206.14Z"/>
        <path class="cls-2" d="M133.51,313.79l293.64-169.53c.51-6.27.77-12.11.77-17.33-45.37-3.26-67.36-36.28-73.83-55.14L89.93,224.3c9.59,28.64,23.66,59.43,43.58,89.49Z"/>
        <path class="cls-2" d="M85.1,208.87l243.08-140.34h-99.29l-154.58,89.25c2,15.24,5.45,32.55,10.8,51.09Z"/>
        <path class="cls-5" d="M353.07,68.53h-206.14c-4.91,18.03-26.75,54.94-74.85,58.4,0,64.17,35.58,213.5,177.92,297.43,142.33-83.93,177.92-233.26,177.92-297.43-48.1-3.46-69.94-40.38-74.85-58.4ZM250,398.24c-112.17-72.13-148.74-188.68-154.75-252.72,35.28-9.48,56.3-34.35,66.66-54.75h176.18c10.36,20.4,31.38,45.28,66.66,54.75-6.01,64.05-42.57,180.6-154.74,252.72Z"/>
        <g>
          <path class="cls-1" d="M248.17,151.93l22.88,46.35,51.15,7.43-37.01,36.08,8.74,50.95-45.75-24.05-45.75,24.05,8.74-50.95-37.01-36.08,51.15-7.43,22.88-46.35Z"/>
          <polygon class="cls-4" points="271.13 198.29 271.04 198.28 248.17 151.93 248.17 229.76 271.13 198.29"/>
          <polygon class="cls-4" points="211.15 241.79 211.14 241.87 248.17 229.76 174.16 205.74 211.15 241.79"/>
          <polygon class="cls-4" points="202.77 292.55 248.17 268.68 248.17 229.76 202.77 292.55"/>
          <polygon class="cls-4" points="248.17 229.76 293.57 292.55 293.92 292.74 285.18 241.79 321.89 206.01 248.17 229.76"/>
        </g>
        <rect class="cls-6" x="243.33" y="333.18" width="13.34" height="13.34" transform="translate(-167.09 276.32) rotate(-45)"/>
        <rect class="cls-6" x="141.57" y="166.92" width="13.34" height="13.34" transform="translate(-79.33 155.67) rotate(-45)"/>
        <rect class="cls-6" x="346.17" y="166.92" width="13.34" height="13.34" transform="translate(-19.4 300.34) rotate(-45)"/>
      </g>
    </g>
  </g>
</svg>