<?xml version="1.0" encoding="UTF-8"?>
<svg id="Layer_2" data-name="Layer 2" xmlns="http://www.w3.org/2000/svg" viewBox="0 0 361 113.49">
  <defs>
    <style>
      .cls-1 {
        opacity: .27;
      }

      .cls-1, .cls-2, .cls-3, .cls-4, .cls-5, .cls-6, .cls-7, .cls-8, .cls-9, .cls-10, .cls-11, .cls-12, .cls-13, .cls-14, .cls-15, .cls-16, .cls-17, .cls-18, .cls-19, .cls-20, .cls-21, .cls-22, .cls-23, .cls-24, .cls-25, .cls-26, .cls-27, .cls-28, .cls-29, .cls-30, .cls-31, .cls-32, .cls-33, .cls-34, .cls-35, .cls-36, .cls-37, .cls-38, .cls-39, .cls-40, .cls-41, .cls-42, .cls-43, .cls-44, .cls-45, .cls-46, .cls-47, .cls-48, .cls-49, .cls-50, .cls-51, .cls-52 {
        stroke: #fede3a;
      }

      .cls-1, .cls-2, .cls-3, .cls-4, .cls-5, .cls-6, .cls-7, .cls-8, .cls-9, .cls-10, .cls-11, .cls-12, .cls-13, .cls-14, .cls-15, .cls-17, .cls-18, .cls-19, .cls-20, .cls-53, .cls-21, .cls-22, .cls-23, .cls-24, .cls-25, .cls-26, .cls-27, .cls-28, .cls-29, .cls-30, .cls-31, .cls-32, .cls-33, .cls-34, .cls-35, .cls-36, .cls-37, .cls-38, .cls-39, .cls-40, .cls-41, .cls-42, .cls-43, .cls-54, .cls-44, .cls-45, .cls-46, .cls-47, .cls-48, .cls-49, .cls-50, .cls-51, .cls-52 {
        fill: none;
      }

      .cls-1, .cls-2, .cls-3, .cls-4, .cls-5, .cls-6, .cls-7, .cls-8, .cls-9, .cls-10, .cls-11, .cls-12, .cls-13, .cls-14, .cls-16, .cls-17, .cls-18, .cls-19, .cls-20, .cls-21, .cls-22, .cls-23, .cls-24, .cls-25, .cls-26, .cls-27, .cls-28, .cls-29, .cls-30, .cls-31, .cls-32, .cls-33, .cls-34, .cls-35, .cls-36, .cls-37, .cls-38, .cls-39, .cls-40, .cls-41, .cls-42, .cls-43, .cls-44, .cls-45, .cls-46, .cls-47, .cls-48, .cls-49, .cls-50, .cls-51, .cls-52 {
        stroke-miterlimit: 10;
      }

      .cls-1, .cls-2, .cls-3, .cls-4, .cls-5, .cls-6, .cls-7, .cls-8, .cls-9, .cls-10, .cls-11, .cls-12, .cls-13, .cls-14, .cls-17, .cls-18, .cls-19, .cls-20, .cls-21, .cls-22, .cls-23, .cls-24, .cls-25, .cls-26, .cls-27, .cls-28, .cls-29, .cls-30, .cls-31, .cls-32, .cls-33, .cls-34, .cls-35, .cls-36, .cls-37, .cls-38, .cls-39, .cls-40, .cls-41, .cls-42, .cls-43, .cls-44, .cls-45, .cls-46, .cls-47, .cls-48, .cls-49, .cls-50, .cls-51, .cls-52 {
        stroke-width: .5px;
      }

      .cls-2 {
        opacity: .91;
      }

      .cls-3 {
        opacity: .93;
      }

      .cls-4 {
        opacity: .96;
      }

      .cls-5 {
        opacity: .78;
      }

      .cls-6 {
        opacity: .34;
      }

      .cls-7 {
        opacity: .98;
      }

      .cls-8 {
        opacity: .14;
      }

      .cls-9 {
        opacity: .87;
      }

      .cls-10 {
        opacity: .54;
      }

      .cls-11 {
        opacity: .72;
      }

      .cls-55, .cls-16, .cls-56 {
        fill: #fede3a;
      }

      .cls-13 {
        opacity: .56;
      }

      .cls-14 {
        opacity: .36;
      }

      .cls-15, .cls-53, .cls-54 {
        stroke-linecap: round;
        stroke-linejoin: round;
      }

      .cls-16 {
        opacity: .12;
      }

      .cls-17 {
        opacity: .21;
      }

      .cls-57 {
        opacity: .55;
      }

      .cls-18 {
        opacity: .83;
      }

      .cls-19 {
        opacity: .28;
      }

      .cls-20 {
        opacity: .3;
      }

      .cls-53, .cls-54 {
        stroke: #24da98;
      }

      .cls-21 {
        opacity: .19;
      }

      .cls-22 {
        opacity: .17;
      }

      .cls-23 {
        opacity: .12;
      }

      .cls-24 {
        opacity: .67;
      }

      .cls-25 {
        opacity: .52;
      }

      .cls-26 {
        opacity: .49;
      }

      .cls-27 {
        opacity: .71;
      }

      .cls-28 {
        opacity: .76;
      }

      .cls-29 {
        opacity: .89;
      }

      .cls-30 {
        opacity: .23;
      }

      .cls-31 {
        opacity: .38;
      }

      .cls-32 {
        opacity: .39;
      }

      .cls-33 {
        opacity: .6;
      }

      .cls-34 {
        opacity: .69;
      }

      .cls-35 {
        opacity: .65;
      }

      .cls-36 {
        opacity: .25;
      }

      .cls-37 {
        opacity: .32;
      }

      .cls-38 {
        opacity: .74;
      }

      .cls-39 {
        opacity: .41;
      }

      .cls-56 {
        opacity: .35;
      }

      .cls-40 {
        opacity: .94;
      }

      .cls-41 {
        opacity: .85;
      }

      .cls-42 {
        opacity: .8;
      }

      .cls-43 {
        opacity: .82;
      }

      .cls-54 {
        opacity: .4;
      }

      .cls-44 {
        opacity: .45;
      }

      .cls-45 {
        opacity: .1;
      }

      .cls-46 {
        opacity: .63;
      }

      .cls-47 {
        opacity: .5;
      }

      .cls-48 {
        opacity: .58;
      }

      .cls-49 {
        opacity: .43;
      }

      .cls-50 {
        opacity: .61;
      }

      .cls-51 {
        opacity: .16;
      }

      .cls-52 {
        opacity: .47;
      }
    </style>
  </defs>
  <g id="base">
    <g>
      <rect class="cls-57" x="14.95" y="9.1" width="331.11" height="82.49"/>
      <polygon class="cls-16" points="358.04 21.7 358.04 69.18 360.46 66.76 360.46 19.66 358.04 21.7"/>
      <polyline class="cls-53" points="333.22 .5 14.42 .5 7.07 7.85 7.07 30.24"/>
      <polyline class="cls-15" points="23.19 2.86 357.82 2.86 360.5 5.54 360.5 16.6 355.39 21.71 355.39 37.22"/>
      <polyline class="cls-53" points="15.68 96.34 357.22 96.28 357.22 86.57 360.4 83.39"/>
      <polyline class="cls-53" points="360.4 21.82 360.4 62.71 356.85 66.26 356.85 75.6"/>
      <line class="cls-15" x1="360.4" y1="69.6" x2="360.4" y2="74.41"/>
      <path class="cls-55" d="M16.5,96.34c0-.45-.37-.82-.82-.82-.45,0-.82.37-.82.82s.37.82.82.82.82-.37.82-.82Z"/>
      <line class="cls-15" x1="10.05" y1="7.75" x2="16" y2="1.8"/>
      <polygon class="cls-56" points="8.21 109.12 8.21 105.96 11.37 109.12 8.21 109.12"/>
      <rect class="cls-55" x="5.48" y="40.56" width="3.18" height="3.18"/>
      <polyline class="cls-54" points="5.48 47.79 1.43 47.79 1.43 45.65"/>
      <polyline class="cls-54" points="1.43 41.58 1.43 36.51 3.62 36.51"/>
      <polyline class="cls-54" points="12.71 43.51 12.71 47.79 10.23 47.79"/>
      <polyline class="cls-54" points="10.76 36.51 12.71 36.51 12.71 40.26"/>
      <polyline class="cls-53" points="6.12 48.72 .5 48.72 .5 35.58 4.58 35.58"/>
      <path class="cls-53" d="M7.07,47.79c-.51,0-.93.42-.93.93s.42.93.93.93.93-.42.93-.93-.42-.93-.93-.93Z"/>
      <path class="cls-53" d="M5.48,34.65c-.51,0-.93.42-.93.93s.42.93.93.93.93-.42.93-.93-.42-.93-.93-.93Z"/>
      <polyline class="cls-53" points="6.62 35.58 13.64 35.58 13.64 48.72 8.06 48.72"/>
      <polygon class="cls-53" points="22.59 108.26 19.41 106.42 22.59 104.58 22.59 108.26"/>
      <path class="cls-55" d="M22.98,108.51c-.3,0-.54.24-.54.54s.24.54.54.54.54-.24.54-.54-.24-.54-.54-.54Z"/>
      <path class="cls-55" d="M18.34,105.84c-.3,0-.54.24-.54.54s.24.54.54.54.54-.24.54-.54-.24-.54-.54-.54Z"/>
      <path class="cls-55" d="M22.98,103.21c-.3,0-.54.24-.54.54s.24.54.54.54.54-.24.54-.54-.24-.54-.54-.54Z"/>
      <polyline class="cls-54" points="19.73 112.06 15.68 112.06 15.68 109.92"/>
      <polyline class="cls-54" points="26.96 107.78 26.96 112.06 24.48 112.06"/>
      <polyline class="cls-54" points="25.01 100.78 26.96 100.78 26.96 104.53"/>
      <polyline class="cls-53" points="20.71 99.85 27.89 99.85 27.89 112.99 14.75 112.99 14.75 109.12"/>
      <path class="cls-53" d="M19.73,98.92c-.51,0-.93.42-.93.93s.42.93.93.93.93-.42.93-.93-.42-.93-.93-.93Z"/>
      <polyline class="cls-53" points="14.75 106.87 14.75 99.85 18.77 99.85"/>
      <line class="cls-53" x1="46.12" y1="112.99" x2="32.99" y2="99.85"/>
      <line class="cls-53" x1="46.12" y1="99.85" x2="32.99" y2="112.99"/>
      <rect class="cls-55" x="37.97" y="104.83" width="3.18" height="3.18"/>
      <polyline class="cls-53" points="46.12 107.26 46.12 112.99 32.99 112.99 32.99 108.97"/>
      <path class="cls-53" d="M32.99,107.08c-.51,0-.93.42-.93.93s.42.93.93.93.93-.42.93-.93-.42-.93-.93-.93Z"/>
      <path class="cls-53" d="M46.12,105.27c-.51,0-.93.42-.93.93s.42.93.93.93.93-.42.93-.93-.42-.93-.93-.93Z"/>
      <polyline class="cls-53" points="32.99 106.91 32.99 99.85 46.12 99.85 46.12 105.12"/>
      <rect class="cls-55" x="348.29" y="11.52" width="2.09" height="2.09"/>
      <polyline class="cls-53" points="358.59 11.74 358.59 15.78 349.33 15.78 349.33 14.26"/>
      <path class="cls-53" d="M358.59,10.34c-.36,0-.65.29-.65.65s.29.65.65.65.65-.29.65-.65-.29-.65-.65-.65Z"/>
      <polyline class="cls-53" points="349.33 10.61 349.33 6.52 358.59 6.52 358.59 10.24"/>
      <g>
        <line class="cls-12" x1="246.1" y1="103.98" x2="250.97" y2="99.11"/>
        <line class="cls-7" x1="248.13" y1="103.98" x2="253" y2="99.11"/>
        <line class="cls-4" x1="250.17" y1="103.98" x2="255.03" y2="99.11"/>
        <line class="cls-40" x1="252.2" y1="103.98" x2="257.07" y2="99.11"/>
        <line class="cls-3" x1="254.23" y1="103.98" x2="259.1" y2="99.11"/>
        <line class="cls-2" x1="256.27" y1="103.98" x2="261.13" y2="99.11"/>
        <line class="cls-29" x1="258.3" y1="103.98" x2="263.17" y2="99.11"/>
        <line class="cls-9" x1="260.34" y1="103.98" x2="265.2" y2="99.11"/>
        <line class="cls-41" x1="262.37" y1="103.98" x2="267.24" y2="99.11"/>
        <line class="cls-18" x1="264.4" y1="103.98" x2="269.27" y2="99.11"/>
        <line class="cls-43" x1="266.44" y1="103.98" x2="271.3" y2="99.11"/>
        <line class="cls-42" x1="268.47" y1="103.98" x2="273.34" y2="99.11"/>
        <line class="cls-5" x1="270.5" y1="103.98" x2="275.37" y2="99.11"/>
        <line class="cls-28" x1="272.54" y1="103.98" x2="277.4" y2="99.11"/>
        <line class="cls-38" x1="274.57" y1="103.98" x2="279.44" y2="99.11"/>
        <line class="cls-11" x1="276.6" y1="103.98" x2="281.47" y2="99.11"/>
        <line class="cls-27" x1="278.64" y1="103.98" x2="283.51" y2="99.11"/>
        <line class="cls-34" x1="280.67" y1="103.98" x2="285.54" y2="99.11"/>
        <line class="cls-24" x1="282.71" y1="103.98" x2="287.57" y2="99.11"/>
        <line class="cls-35" x1="284.74" y1="103.98" x2="289.61" y2="99.11"/>
        <line class="cls-46" x1="286.77" y1="103.98" x2="291.64" y2="99.11"/>
        <line class="cls-50" x1="288.81" y1="103.98" x2="293.67" y2="99.11"/>
        <line class="cls-33" x1="290.84" y1="103.98" x2="295.71" y2="99.11"/>
        <line class="cls-48" x1="292.87" y1="103.98" x2="297.74" y2="99.11"/>
        <line class="cls-13" x1="294.91" y1="103.98" x2="299.77" y2="99.11"/>
        <line class="cls-10" x1="296.94" y1="103.98" x2="301.81" y2="99.11"/>
        <line class="cls-25" x1="298.98" y1="103.98" x2="303.84" y2="99.11"/>
        <line class="cls-47" x1="301.01" y1="103.98" x2="305.88" y2="99.11"/>
        <line class="cls-26" x1="303.04" y1="103.98" x2="307.91" y2="99.11"/>
        <line class="cls-52" x1="305.08" y1="103.98" x2="309.94" y2="99.11"/>
        <line class="cls-44" x1="307.11" y1="103.98" x2="311.98" y2="99.11"/>
        <line class="cls-49" x1="309.14" y1="103.98" x2="314.01" y2="99.11"/>
        <line class="cls-39" x1="311.18" y1="103.98" x2="316.04" y2="99.11"/>
        <line class="cls-32" x1="313.21" y1="103.98" x2="318.08" y2="99.11"/>
        <line class="cls-31" x1="315.24" y1="103.98" x2="320.11" y2="99.11"/>
        <line class="cls-14" x1="317.28" y1="103.98" x2="322.15" y2="99.11"/>
        <line class="cls-6" x1="319.31" y1="103.98" x2="324.18" y2="99.11"/>
        <line class="cls-37" x1="321.35" y1="103.98" x2="326.21" y2="99.11"/>
        <line class="cls-20" x1="323.38" y1="103.98" x2="328.25" y2="99.11"/>
        <line class="cls-19" x1="325.41" y1="103.98" x2="330.28" y2="99.11"/>
        <line class="cls-1" x1="327.45" y1="103.98" x2="332.31" y2="99.11"/>
        <line class="cls-36" x1="329.48" y1="103.98" x2="334.35" y2="99.11"/>
        <line class="cls-30" x1="331.51" y1="103.98" x2="336.38" y2="99.11"/>
        <line class="cls-17" x1="333.55" y1="103.98" x2="338.41" y2="99.11"/>
        <line class="cls-21" x1="335.58" y1="103.98" x2="340.45" y2="99.11"/>
        <line class="cls-22" x1="337.62" y1="103.98" x2="342.48" y2="99.11"/>
        <line class="cls-51" x1="339.65" y1="103.98" x2="344.52" y2="99.11"/>
        <line class="cls-8" x1="341.68" y1="103.98" x2="346.55" y2="99.11"/>
        <line class="cls-23" x1="343.72" y1="103.98" x2="348.58" y2="99.11"/>
        <line class="cls-45" x1="345.75" y1="103.98" x2="350.62" y2="99.11"/>
      </g>
    </g>
  </g>
</svg>