<?xml version="1.0" encoding="UTF-8"?>
<svg id="Layer_2" data-name="Layer 2" xmlns="http://www.w3.org/2000/svg" viewBox="0 0 271.65 270.52">
  <defs>
    <style>
      .cls-1, .cls-2, .cls-3, .cls-4, .cls-5 {
        fill: none;
      }

      .cls-1, .cls-3 {
        stroke: #27c1e6;
      }

      .cls-1, .cls-5 {
        stroke-dasharray: 13 4;
        stroke-linecap: round;
        stroke-linejoin: round;
      }

      .cls-2, .cls-3, .cls-4 {
        stroke-miterlimit: 10;
      }

      .cls-2, .cls-5 {
        stroke: #f7cb15;
      }

      .cls-4 {
        stroke: #fff;
      }

      .cls-6 {
        fill: #27c1e6;
      }

      .cls-7 {
        fill: #f7cb15;
        opacity: .1;
      }
    </style>
  </defs>
  <g id="base">
    <g>
      <path class="cls-7" d="M256.67,26.75H53c0,8.13-3.7,15.4-9.51,20.21h0c-2.81,2.33-6.12,4.08-9.74,5.08-.08.02-.16.05-.24.07-.64.17-1.3.31-1.96.44-.12.02-.23.04-.35.06-.66.11-1.32.2-2,.27-.1,0-.21.02-.31.02-.71.06-1.42.09-2.14.09,0,0,0,0,0,0-.44,0-.89-.01-1.33-.03-.22-.01-.44-.03-.67-.05-.21-.02-.42-.03-.63-.05-.02,0-.05,0-.07,0v206.51c4.23,4.23,6.59,6.59,10.82,10.82h221.8l10.82-10.82V37.57c-4.23-4.23-6.59-6.59-10.82-10.82Z"/>
      <rect class="cls-7" x="50.43" y="52.44" width="191.73" height="191.73"/>
      <polyline class="cls-2" points="45.35 8.24 50.24 3.35 70.29 3.35"/>
      <path class="cls-6" d="M261.53,58.6c.19,0,.37.1.47.27l9.59,16.6c.1.17.1.37,0,.54s-.28.27-.47.27h-19.17c-.19,0-.37-.1-.47-.27s-.1-.37,0-.54l9.58-16.6c.1-.17.28-.27.47-.27ZM268.36,72.05l-5.01-8.68c-.81-1.4-2.83-1.4-3.64,0l-5.01,8.68c-.81,1.4.2,3.15,1.82,3.15h10.03c1.62,0,2.63-1.75,1.82-3.15Z"/>
      <g>
        <path class="cls-2" d="M8.53,37.45c6.88,0,10.86-6.97,17.64-6.97s12.42,8.31,17.32,8.31"/>
        <path class="cls-4" d="M26.75,45.91c-3.51,0-6.86,2.84-9.92,5.14,3.06,1.25,6.41,1.95,9.92,1.95,3.16,0,6.18-.56,8.99-1.58-2.8-2.53-5.83-5.51-8.99-5.51Z"/>
        <path class="cls-3" d="M22.66,24.61c1.14-.2,2.31-.33,3.51-.33s2.37.12,3.51.33c2.6-1.29,4.39-3.97,4.39-7.07,0-4.36-3.54-7.9-7.9-7.9s-7.9,3.54-7.9,7.9c0,3.1,1.79,5.77,4.39,7.07Z"/>
        <circle class="cls-3" cx="26.75" cy="26.75" r="26.25"/>
        <path class="cls-3" d="M26.16,24.32c-9.92,0-17.96,8.04-17.96,17.96,0,1.15.12,2.26.32,3.35,4.72,4.56,11.14-6.97,18.22-6.97,6.36,0,12.2,12.07,16.74,8.31.4-1.5.64-3.06.64-4.68,0-9.92-8.04-17.96-17.96-17.96Z"/>
      </g>
      <circle class="cls-2" cx="72.85" cy="3.35" r="2.55"/>
      <polyline class="cls-5" points="75.4 26.44 250.71 26.44 261.53 37.26 261.53 53.85"/>
      <line class="cls-3" x1="28.91" y1="95.15" x2="28.91" y2="53.49"/>
      <line class="cls-3" x1="24.58" y1="95.15" x2="24.58" y2="53.49"/>
      <line class="cls-3" x1="28.91" y1="198.85" x2="28.91" y2="122.14"/>
      <line class="cls-3" x1="24.58" y1="192.47" x2="24.58" y2="115.76"/>
      <line class="cls-3" x1="24.58" y1="254.8" x2="24.58" y2="241.64"/>
      <line class="cls-2" x1="268.02" y1="95.15" x2="268.02" y2="86.49"/>
      <line class="cls-3" x1="261.53" y1="95.15" x2="261.53" y2="80"/>
      <line class="cls-2" x1="268.02" y1="220.73" x2="268.02" y2="130.42"/>
      <line class="cls-3" x1="261.53" y1="210.08" x2="261.53" y2="118.95"/>
      <polyline class="cls-2" points="268.02 232.33 268.02 255.21 253.2 270.02 37.42 270.02 28.91 261.51 28.91 237.01"/>
      <polyline class="cls-1" points="261.53 239.63 261.53 250.28 252.18 259.63 90.48 259.63"/>
      <circle class="cls-3" cx="86.33" cy="259.63" r="4.15"/>
    </g>
  </g>
</svg>