<?xml version="1.0" encoding="UTF-8"?>
<svg id="Layer_2" data-name="Layer 2" xmlns="http://www.w3.org/2000/svg" viewBox="0 0 245.18 48.84">
  <defs>
    <style>
      .cls-1 {
        stroke: #f7cb15;
      }

      .cls-1, .cls-2 {
        fill: none;
        stroke-miterlimit: 10;
      }

      .cls-3 {
        fill: #27c1e6;
        opacity: .1;
      }

      .cls-2 {
        stroke: #27c1e6;
      }

      .cls-4 {
        fill: #04161e;
      }
    </style>
  </defs>
  <g id="base">
    <g>
      <path class="cls-4" d="M234.68,48.34H10.5c-3.91-3.91-6.09-6.09-10-10V.5h234.18l10,10v27.84c-3.91,3.91-6.09,6.09-10,10Z"/>
      <path class="cls-3" d="M234.68,48.34H16.36c-3.91-3.91-6.09-6.09-10-10V.5h228.33c3.91,3.91,6.09,6.09,10,10v27.84c-3.91,3.91-6.09,6.09-10,10Z"/>
      <path class="cls-3" d="M228.83,48.34H10.5c-3.91-3.91-6.09-6.09-10-10V.5s228.33,0,228.33,0c3.91,3.91,6.09,6.09,10,10v27.84c-3.91,3.91-6.09,6.09-10,10Z"/>
      <polyline class="cls-2" points="223.04 48.34 228.83 48.34 238.83 38.34 238.83 10.5 228.83 .5 221.44 .5"/>
      <polyline class="cls-2" points="30.05 48.34 30.05 48.34 10.5 48.34 .5 38.34 .5 14.14"/>
      <line class="cls-1" x1="244.68" y1="14.49" x2="244.68" y2="34.3"/>
    </g>
  </g>
</svg>