<?xml version="1.0" encoding="UTF-8"?>
<svg id="Layer_2" data-name="Layer 2" xmlns="http://www.w3.org/2000/svg" viewBox="0 0 193.03 222.89">
  <defs>
    <style>
      .cls-1 {
        fill: #fff;
      }
    </style>
  </defs>
  <g id="base">
    <g>
      <polygon class="cls-1" points="182.39 173.31 180.02 169.2 188.28 164.43 188.28 154.88 193.03 154.88 193.03 167.17 182.39 173.31"/>
      <polygon class="cls-1" points="193.03 68 188.28 68 188.28 58.46 180.02 53.69 182.39 49.58 193.03 55.72 193.03 68"/>
      <polygon class="cls-1" points="104.78 10.25 96.51 5.48 88.25 10.25 85.88 6.14 96.51 0 107.15 6.14 104.78 10.25"/>
      <polygon class="cls-1" points="4.74 68 0 68 0 55.72 10.64 49.58 13.01 53.69 4.74 58.46 4.74 68"/>
      <polygon class="cls-1" points="10.64 173.31 0 167.17 0 154.88 4.74 154.88 4.74 164.43 13.01 169.2 10.64 173.31"/>
      <polygon class="cls-1" points="96.51 222.89 85.88 216.75 88.25 212.64 96.51 217.41 104.78 212.64 107.15 216.75 96.51 222.89"/>
    </g>
  </g>
</svg>