<?xml version="1.0" encoding="UTF-8"?>
<svg id="base" xmlns="http://www.w3.org/2000/svg" viewBox="0 0 150 130">
  <defs>
    <style>
      .cls-1 {
        opacity: .3;
      }

      .cls-2 {
        fill: #fff;
      }
    </style>
  </defs>
  <g class="cls-1">
    <polygon class="cls-2" points="37.91 .71 42.36 .71 43.59 0 37.5 0 34.45 5.28 35.68 4.57 37.91 .71"/>
    <polygon class="cls-2" points=".82 65 3.05 61.14 3.05 59.72 0 65 3.05 70.28 3.05 68.86 .82 65"/>
    <polygon class="cls-2" points="112.09 .71 114.32 4.57 115.55 5.28 112.5 0 106.41 0 107.64 .71 112.09 .71"/>
    <polygon class="cls-2" points="37.91 129.29 35.68 125.43 34.45 124.72 37.5 130 43.59 130 42.36 129.29 37.91 129.29"/>
    <polygon class="cls-2" points="146.95 59.72 146.95 61.14 149.18 65 146.95 68.86 146.95 70.28 150 65 146.95 59.72"/>
    <polygon class="cls-2" points="112.09 129.29 107.64 129.29 106.41 130 112.5 130 115.55 124.72 114.32 125.43 112.09 129.29"/>
  </g>
</svg>