<?xml version="1.0" encoding="UTF-8"?>
<svg id="base" xmlns="http://www.w3.org/2000/svg" viewBox="0 0 150 130">
  <defs>
    <style>
      .cls-1 {
        fill: #f06ea9;
      }
    </style>
  </defs>
  <polygon class="cls-1" points="144.47 74.58 150 65 144.47 55.42 144.47 60.79 146.9 65 144.47 69.21 144.47 74.58"/>
  <polygon class="cls-1" points="105.93 2.69 110.95 2.69 113.45 7.02 118.1 9.71 112.5 0 101.28 0 105.93 2.69"/>
  <polygon class="cls-1" points="36.55 7.02 39.05 2.69 44.07 2.69 48.72 0 37.5 0 31.9 9.71 36.55 7.02"/>
  <polygon class="cls-1" points="5.53 69.21 3.1 65 5.53 60.79 5.53 55.42 0 65 5.53 74.58 5.53 69.21"/>
  <polygon class="cls-1" points="113.45 122.98 110.95 127.31 105.93 127.31 101.28 130 112.5 130 118.1 120.29 113.45 122.98"/>
  <polygon class="cls-1" points="44.07 127.31 39.05 127.31 36.55 122.98 31.9 120.29 37.5 130 48.72 130 44.07 127.31"/>
</svg>