<svg xmlns="http://www.w3.org/2000/svg" viewBox="0 0 92.38 66.77"><defs><style>.cls-1,.cls-2,.cls-4,.cls-5{fill:#fff;}.cls-2{opacity:0.1;}.cls-3{fill:#212121;}.cls-3,.cls-4{opacity:0.5;}.cls-5{opacity:0.2;}</style></defs><g id="interface_layer" data-name="interface layer"><polygon class="cls-1" points="32.66 18.6 32.66 37.45 16.33 46.88 0 37.45 0 18.6 16.33 9.17 32.66 18.6"/><polygon class="cls-1" points="66.83 38.48 66.83 57.34 50.5 66.77 34.17 57.34 34.17 38.48 50.5 29.06 66.83 38.48"/><polygon class="cls-2" points="81.76 29.51 81.76 37.37 74.96 41.3 68.15 37.37 68.15 29.51 74.96 25.59 81.76 29.51"/><polygon class="cls-2" points="84.76 23.6 84.76 27.03 81.79 28.75 78.82 27.03 78.82 23.6 81.79 21.89 84.76 23.6"/><polygon class="cls-3" points="88.18 29.61 88.18 32.77 85.44 34.35 82.7 32.77 82.7 29.61 85.44 28.03 88.18 29.61"/><polygon class="cls-3" points="49.59 19.15 49.59 28.28 41.69 32.84 33.78 28.28 33.78 19.15 41.69 14.59 49.59 19.15"/><polygon class="cls-3" points="92.38 18.41 92.38 20.1 90.92 20.95 89.45 20.1 89.45 18.41 90.92 17.57 92.38 18.41"/><polygon class="cls-4" points="32.66 39.29 17.73 47.91 32.66 56.53 32.66 39.29"/><polygon class="cls-5" points="84.64 36.99 76.08 41.94 84.64 46.88 84.64 36.99"/><polygon class="cls-3" points="78.35 23.37 75.62 24.94 78.35 26.51 78.35 23.37"/><polygon class="cls-4" points="0 17.24 14.93 8.62 0 0 0 17.24"/><polygon class="cls-4" points="68.14 56.53 83.07 47.91 68.14 39.29 68.14 56.53"/></g></svg>