<svg xmlns="http://www.w3.org/2000/svg" viewBox="0 0 92.38 66.77"><defs><style>.cls-1,.cls-2,.cls-4,.cls-5{fill:#fff;}.cls-2{opacity:0.1;}.cls-3{fill:#212121;}.cls-3,.cls-4{opacity:0.5;}.cls-5{opacity:0.2;}</style></defs><g id="interface_layer" data-name="interface layer"><polygon class="cls-1" points="59.72 18.6 59.72 37.45 76.05 46.88 92.38 37.45 92.38 18.6 76.05 9.17 59.72 18.6"/><polygon class="cls-1" points="25.55 38.48 25.55 57.34 41.88 66.77 58.22 57.34 58.22 38.48 41.88 29.06 25.55 38.48"/><polygon class="cls-2" points="10.62 29.51 10.62 37.37 17.43 41.3 24.23 37.37 24.23 29.51 17.43 25.59 10.62 29.51"/><polygon class="cls-2" points="7.62 23.6 7.62 27.03 10.59 28.75 13.56 27.03 13.56 23.6 10.59 21.89 7.62 23.6"/><polygon class="cls-3" points="4.2 29.61 4.2 32.77 6.94 34.35 9.68 32.77 9.68 29.61 6.94 28.03 4.2 29.61"/><polygon class="cls-3" points="42.79 19.15 42.79 28.28 50.7 32.84 58.6 28.28 58.6 19.15 50.7 14.59 42.79 19.15"/><polygon class="cls-3" points="0 18.41 0 20.1 1.46 20.95 2.93 20.1 2.93 18.41 1.46 17.57 0 18.41"/><polygon class="cls-4" points="59.72 39.29 74.65 47.91 59.72 56.53 59.72 39.29"/><polygon class="cls-5" points="7.74 36.99 16.31 41.94 7.74 46.88 7.74 36.99"/><polygon class="cls-3" points="14.04 23.37 16.76 24.94 14.04 26.51 14.04 23.37"/><polygon class="cls-4" points="92.38 17.24 77.45 8.62 92.38 0 92.38 17.24"/><polygon class="cls-4" points="24.24 56.53 9.31 47.91 24.24 39.29 24.24 56.53"/></g></svg>