<svg xmlns="http://www.w3.org/2000/svg" viewBox="0 0 200 60"><defs><style>.cls-1,.cls-2{fill:#b388ff;}.cls-1{opacity:0.15;}.cls-2,.cls-4{opacity:0.3;}.cls-3{fill:#ea80fc;opacity:0.4;}.cls-4,.cls-5{fill:#7e57c2;}.cls-5,.cls-6{opacity:0.2;}.cls-6{fill:#fff;}</style></defs><g id="interface_layer" data-name="interface layer"><polygon class="cls-1" points="45.51 0 45.51 2.56 65.87 14.31 65.87 45.69 45.51 57.44 45.51 60 200 60 200 0 45.51 0"/><polygon class="cls-2" points="15.88 16.83 15.88 43.17 38.7 56.35 61.52 43.17 61.52 16.83 38.7 3.65 15.88 16.83"/><polygon class="cls-3" points="8.82 3.66 8.82 10.99 15.16 14.65 21.51 10.99 21.51 3.66 15.16 0 8.82 3.66"/><polygon class="cls-3" points="15.88 49.63 15.88 54.11 19.76 56.35 23.64 54.11 23.64 49.63 19.76 47.39 15.88 49.63"/><polygon class="cls-4" points="4.66 16.91 4.66 22.65 9.63 25.52 14.6 22.65 14.6 16.91 9.63 14.04 4.66 16.91"/><polygon class="cls-5" points="2.12 11.85 2.12 14.18 4.15 15.35 6.17 14.18 6.17 11.85 4.15 10.68 2.12 11.85"/><polygon class="cls-5" points="3.41 23.91 3.41 25.35 4.66 26.07 5.9 25.35 5.9 23.91 4.66 23.2 3.41 23.91"/><polygon class="cls-6" points="1.66 21.04 1.66 22.48 2.9 23.2 4.15 22.48 4.15 21.04 2.9 20.33 1.66 21.04"/><polygon class="cls-5" points="7.5 12.14 7.5 13.88 9 13.01 7.5 12.14"/><polygon class="cls-5" points="13.09 26.34 13.09 28.08 14.6 27.21 13.09 26.34"/><polygon class="cls-5" points="14.6 25.75 14.6 23.51 12.66 24.63 14.6 25.75"/><polygon class="cls-3" points="14.6 37.31 14.6 35.87 13.35 36.59 14.6 37.31"/><polygon class="cls-6" points="12.48 32.34 12.48 34.78 14.6 33.56 12.48 32.34"/><polygon class="cls-6" points="14.6 31.51 14.6 28.38 11.88 29.94 14.6 31.51"/><polygon class="cls-5" points="15.88 45.19 15.88 48.14 18.43 46.66 15.88 45.19"/></g></svg>