<svg xmlns="http://www.w3.org/2000/svg" viewBox="0 0 200 60"><defs><style>.cls-1{isolation:isolate;}.cls-2{fill:#03a9f4;}.cls-14,.cls-15,.cls-2{opacity:0.2;}.cls-14,.cls-15,.cls-3{fill:#fff;}.cls-3{opacity:0.1;}.cls-4{fill:#00b0ff;}.cls-5{fill:#0d47a1;}.cls-6{fill:#76ff03;}.cls-7{fill:#1b5e20;}.cls-8{fill:#f50057;}.cls-9{fill:#880e4f;}.cls-10{fill:#ffd740;}.cls-11{fill:#ff8f00;}.cls-12{fill:#18ffff;}.cls-13{fill:#006064;}.cls-14{mix-blend-mode:overlay;}</style></defs><g class="cls-1"><g id="interface_layer" data-name="interface layer"><polygon class="cls-2" points="187.62 45.48 195.57 43.35 195.57 7.84 34.89 7.84 37.97 9.61 37.97 17.06 32.1 20.44 32.76 20.82 32.76 40.45 21.17 47.14 21.17 53.44 185.49 53.44 187.62 45.48"/><polygon class="cls-3" points="0 21.54 0 39.73 15.76 48.83 31.52 39.73 31.52 21.54 15.76 12.44 0 21.54"/><polygon class="cls-4" points="0.88 22.05 0.88 39.23 15.76 47.81 30.63 39.23 30.63 22.05 15.76 13.46 0.88 22.05"/><polygon class="cls-5" points="1.69 22.51 1.69 38.76 15.76 46.88 29.83 38.76 29.83 22.51 15.76 14.39 1.69 22.51"/><polygon class="cls-3" points="25.83 10.05 25.83 16.62 31.52 19.9 37.2 16.62 37.2 10.05 31.52 6.77 25.83 10.05"/><polygon class="cls-6" points="26.95 10.7 26.95 15.97 31.52 18.6 36.08 15.97 36.08 10.7 31.52 8.06 26.95 10.7"/><polygon class="cls-7" points="28.08 11.35 28.08 15.32 31.52 17.3 34.95 15.32 34.95 11.35 31.52 9.37 28.08 11.35"/><polygon class="cls-3" points="14.11 3.28 14.11 9.84 19.79 13.13 25.48 9.84 25.48 3.28 19.79 0 14.11 3.28"/><polygon class="cls-3" points="9.91 11.36 9.91 13.03 11.36 13.87 12.8 13.03 12.8 11.36 11.36 10.53 9.91 11.36"/><polygon class="cls-3" points="7.09 13.55 7.09 14.93 8.28 15.61 9.47 14.93 9.47 13.55 8.28 12.86 7.09 13.55"/><polygon class="cls-8" points="15.23 3.93 15.23 9.2 19.79 11.83 24.36 9.2 24.36 3.93 19.79 1.29 15.23 3.93"/><polygon class="cls-9" points="16.36 4.58 16.36 8.54 19.79 10.53 23.23 8.54 23.23 4.58 19.79 2.6 16.36 4.58"/><polygon class="cls-3" points="3.34 50.16 3.34 56.72 9.03 60 14.71 56.72 14.71 50.16 9.03 46.88 3.34 50.16"/><polygon class="cls-10" points="4.46 50.8 4.46 56.07 9.03 58.71 13.59 56.07 13.59 50.8 9.03 48.17 4.46 50.8"/><polygon class="cls-11" points="5.59 51.45 5.59 55.42 9.03 57.4 12.46 55.42 12.46 51.45 9.03 49.47 5.59 51.45"/><polygon class="cls-3" points="15.39 54.2 15.39 56.97 17.79 58.36 20.19 56.97 20.19 54.2 17.79 52.81 15.39 54.2"/><polygon class="cls-12" points="15.86 54.47 15.86 56.7 17.79 57.81 19.72 56.7 19.72 54.47 17.79 53.36 15.86 54.47"/><polygon class="cls-13" points="16.34 54.75 16.34 56.42 17.79 57.26 19.24 56.42 19.24 54.75 17.79 53.91 16.34 54.75"/><polygon class="cls-2" points="20.68 13.67 25.11 16.23 25.11 11.11 20.68 13.67"/><polygon class="cls-3" points="15.32 50.34 20.69 53.44 20.69 47.23 15.32 50.34"/><polygon class="cls-14" points="190.69 42.47 191.53 42.25 190.92 41.64 190.69 42.47"/><polygon class="cls-15" points="15.75 11.6 14.1 10.65 14.1 12.55 15.75 11.6"/><polygon class="cls-15" points="11.04 14.11 9.91 13.46 9.91 14.76 11.04 14.11"/><polygon class="cls-3" points="186.94 53.08 191.72 57.86 198.25 56.11 200 49.58 195.22 44.8 188.69 46.55 186.94 53.08"/><polygon class="cls-4" points="187.86 52.83 191.97 56.94 197.57 55.44 199.08 49.83 194.97 45.72 189.36 47.23 187.86 52.83"/><polygon class="cls-5" points="188.93 52.55 192.25 55.88 196.79 54.66 198.01 50.11 194.69 46.79 190.14 48.01 188.93 52.55"/><polygon class="cls-3" points="186.92 42.57 188.34 43.98 190.26 43.47 190.78 41.54 189.37 40.12 187.44 40.64 186.92 42.57"/><polygon class="cls-3" points="190.44 43.52 191.11 44.2 192.03 43.95 192.27 43.03 191.6 42.36 190.68 42.61 190.44 43.52"/></g></g></svg>