<svg id="Layer_1" data-name="Layer 1" xmlns="http://www.w3.org/2000/svg" viewBox="0 0 150 150"><defs><style>.cls-1{fill:#212121;}</style></defs><path class="cls-1" d="M29,3.57h92a7.14,7.14,0,0,1,7.13,7.13V112.75a7.16,7.16,0,0,1-3.57,6.18l-46,26.55a7.18,7.18,0,0,1-7.14,0l-46-26.55a7.16,7.16,0,0,1-3.57-6.18V10.7A7.14,7.14,0,0,1,29,3.57M29,0a10.7,10.7,0,0,0-10.7,10.7V112.75A10.72,10.72,0,0,0,23.66,122l46,26.55a10.72,10.72,0,0,0,10.7,0l46-26.55a10.72,10.72,0,0,0,5.35-9.27V10.7A10.7,10.7,0,0,0,121,0Z"/></svg>