<svg xmlns="http://www.w3.org/2000/svg" viewBox="0 0 150 150"><defs><style>.cls-1{isolation:isolate;}.cls-2{mix-blend-mode:overlay;}.cls-3{fill:#212121;}</style></defs><g class="cls-1"><g id="Layer_1" data-name="Layer 1"><g class="cls-2"><path class="cls-3" d="M75,18.27a2.07,2.07,0,0,1,1,.28l47.34,27.33a2.07,2.07,0,0,1,1,1.79v54.66a2.07,2.07,0,0,1-1,1.79L76,131.45a2,2,0,0,1-2.06,0L26.63,104.12a2.07,2.07,0,0,1-1-1.79V47.67a2.07,2.07,0,0,1,1-1.79L74,18.55a2.07,2.07,0,0,1,1-.28M75,10a10.29,10.29,0,0,0-5.17,1.39L22.49,38.72a10.33,10.33,0,0,0-5.17,9v54.66a10.33,10.33,0,0,0,5.17,9l47.34,27.33a10.31,10.31,0,0,0,10.34,0l47.34-27.33a10.33,10.33,0,0,0,5.17-9V47.67a10.33,10.33,0,0,0-5.17-9L80.17,11.39A10.26,10.26,0,0,0,75,10Z"/></g></g></g></svg>