<svg id="Layer_1" data-name="Layer 1" xmlns="http://www.w3.org/2000/svg" viewBox="0 0 150 150"><defs><style>.cls-1{fill:#212121;}</style></defs><path class="cls-1" d="M75,4.19a7.81,7.81,0,0,1,3.87,1l54.62,31.54a7.76,7.76,0,0,1,3.87,6.71v63.07a7.76,7.76,0,0,1-3.87,6.7L78.87,144.78a7.79,7.79,0,0,1-7.74,0L16.51,113.24a7.76,7.76,0,0,1-3.87-6.7V43.46a7.76,7.76,0,0,1,3.87-6.7L71.13,5.22a7.81,7.81,0,0,1,3.87-1M75,0a11.84,11.84,0,0,0-6,1.6L14.41,33.13a11.93,11.93,0,0,0-6,10.33v63.08a11.93,11.93,0,0,0,6,10.33L69,148.4a11.92,11.92,0,0,0,11.93,0l54.63-31.53a11.93,11.93,0,0,0,6-10.33V43.47a11.94,11.94,0,0,0-6-10.34L81,1.6A11.91,11.91,0,0,0,75,0Z"/></svg>