<svg xmlns="http://www.w3.org/2000/svg" viewBox="0 0 150 150"><defs><style>.cls-1{isolation:isolate;}.cls-2{mix-blend-mode:overlay;}.cls-3{fill:#212121;}</style></defs><g class="cls-1"><g id="Layer_1" data-name="Layer 1"><g class="cls-2"><path class="cls-3" d="M35.14,17.08h79.72a2.2,2.2,0,0,1,2.19,2.19v88.45a2.18,2.18,0,0,1-1.1,1.89l-39.86,23a2.13,2.13,0,0,1-2.18,0l-39.86-23a2.18,2.18,0,0,1-1.1-1.89V19.27a2.19,2.19,0,0,1,2.19-2.19h0m0-7.08a9.27,9.27,0,0,0-9.27,9.27v88.45a9.28,9.28,0,0,0,4.64,8l39.85,23a9.3,9.3,0,0,0,9.28,0l39.85-23a9.28,9.28,0,0,0,4.64-8V19.27A9.27,9.27,0,0,0,114.86,10Z"/></g></g></g></svg>