<svg id="Layer_1" data-name="Layer 1" xmlns="http://www.w3.org/2000/svg" viewBox="0 0 150 150"><defs><style>.cls-1{fill:#212121;}</style></defs><path class="cls-1" d="M133.31,48.05l-2.17,1.26a60.55,60.55,0,0,0-3.31-5.76L130,42.3a6.69,6.69,0,0,0,0-11.59L78.34.9a6.65,6.65,0,0,0-6.68,0L20,30.71A6.69,6.69,0,0,0,20,42.3l2.16,1.25a60.55,60.55,0,0,0-3.31,5.76l-2.17-1.26a6.69,6.69,0,0,0-10,5.79v59.64a6.71,6.71,0,0,0,3.35,5.8l51.65,29.81a6.68,6.68,0,0,0,10-5.79v-2.88c1.1.06,2.21.09,3.32.09s2.22,0,3.32-.09v2.88a6.68,6.68,0,0,0,10,5.79L140,119.28a6.71,6.71,0,0,0,3.35-5.8V53.84A6.69,6.69,0,0,0,133.31,48.05Z"/></svg>