<svg xmlns="http://www.w3.org/2000/svg" viewBox="0 0 47.12 46.15"><defs><style>.cls-1,.cls-5{fill:#fff;}.cls-1{opacity:0.1;}.cls-2{fill:#ffc107;opacity:0.4;}.cls-3{fill:#ff7043;opacity:0.3;}.cls-4{fill:#ffa726;}.cls-4,.cls-5{opacity:0.2;}</style></defs><g id="Nav_Layer" data-name="Nav Layer"><polygon class="cls-1" points="35.93 31.11 35.93 10.37 17.96 0 0 10.37 0 31.11 17.96 41.49 35.93 31.11"/><polygon class="cls-2" points="42.53 42.67 42.53 35.7 36.49 32.21 30.45 35.7 30.45 42.67 36.49 46.16 42.53 42.67"/><polygon class="cls-2" points="5.02 5.72 5.02 2.82 2.51 1.37 0 2.82 0 5.72 2.51 7.17 5.02 5.72"/><polygon class="cls-3" points="44.77 31.05 44.77 26.53 40.85 24.27 36.94 26.53 36.94 31.05 40.85 33.3 44.77 31.05"/><polygon class="cls-4" points="47.12 35.25 47.12 32.99 45.17 31.86 43.21 32.99 43.21 35.25 45.17 36.38 47.12 35.25"/><polygon class="cls-4" points="45.74 25.54 45.74 24.41 44.77 23.84 43.79 24.41 43.79 25.54 44.77 26.1 45.74 25.54"/><polygon class="cls-5" points="47.12 27.79 47.12 26.66 46.14 26.1 45.17 26.66 45.17 27.79 46.14 28.36 47.12 27.79"/><polygon class="cls-4" points="42.53 34.8 42.53 33.43 41.34 34.12 42.53 34.8"/><polygon class="cls-4" points="36.94 24.09 36.94 25.85 38.47 24.97 36.94 24.09"/><polygon class="cls-4" points="0 6.91 0 8.67 1.52 7.79 0 6.91"/></g></svg>