<svg xmlns="http://www.w3.org/2000/svg" viewBox="0 0 47.12 46.15"><defs><style>.cls-1,.cls-5{fill:#fff;}.cls-1{opacity:0.1;}.cls-2{fill:#80d8ff;opacity:0.4;}.cls-3,.cls-4{fill:#29b6f6;}.cls-3{opacity:0.3;}.cls-4,.cls-5,.cls-6{opacity:0.2;}.cls-6{fill:#7e57c2;}</style></defs><g id="Nav_Layer" data-name="Nav Layer"><polygon class="cls-1" points="11.19 15.04 11.19 35.78 29.16 46.16 47.12 35.78 47.12 15.04 29.16 4.67 11.19 15.04"/><polygon class="cls-2" points="4.59 3.48 4.59 10.46 10.63 13.94 16.67 10.46 16.67 3.48 10.63 0 4.59 3.48"/><polygon class="cls-2" points="42.1 40.44 42.1 43.33 44.61 44.78 47.12 43.33 47.12 40.44 44.61 38.99 42.1 40.44"/><polygon class="cls-3" points="2.36 15.11 2.36 19.63 6.27 21.89 10.18 19.63 10.18 15.11 6.27 12.85 2.36 15.11"/><polygon class="cls-4" points="0 10.91 0 13.17 1.96 14.3 3.91 13.17 3.91 10.91 1.96 9.78 0 10.91"/><polygon class="cls-4" points="1.38 20.62 1.38 21.75 2.36 22.31 3.33 21.75 3.33 20.62 2.36 20.05 1.38 20.62"/><polygon class="cls-5" points="0 18.36 0 19.49 0.98 20.05 1.96 19.49 1.96 18.36 0.98 17.8 0 18.36"/><polygon class="cls-4" points="4.59 11.35 4.59 12.72 5.78 12.04 4.59 11.35"/><polygon class="cls-4" points="10.18 22.07 10.18 20.3 8.66 21.18 10.18 22.07"/><polygon class="cls-6" points="47.12 39.24 47.12 37.48 45.6 38.36 47.12 39.24"/></g></svg>