<?xml version="1.0" encoding="utf-8"?>
<!-- Generator: Adobe Illustrator 19.2.1, SVG Export Plug-In . SVG Version: 6.00 Build 0)  -->
<svg version="1.1" id="Layer_1" xmlns="http://www.w3.org/2000/svg" xmlns:xlink="http://www.w3.org/1999/xlink" x="0px" y="0px"
	 viewBox="0 0 500 500" style="enable-background:new 0 0 500 500;" xml:space="preserve">
<style type="text/css">
	.st0{fill:none;}
	.st1{fill:#1665C0;}
	.st2{fill:#64B5F6;}
</style>
<rect class="st0" width="500" height="500"/>
<g>
	<polygon class="st1" points="317.9,64.1 301.1,55.3 173.8,95.9 205.8,97.6 	"/>
	<polygon class="st2" points="150.5,191.4 244.5,170.3 252.8,138.8 376,104.4 323.6,67.3 206.8,102.2 161.8,99.9 65,176.8 	"/>
	<polygon class="st1" points="73,182.9 162.6,231.2 148.9,195.8 	"/>
	<polygon class="st2" points="192.4,295.5 242.5,175.5 153.7,195.4 	"/>
	<polygon class="st2" points="170.1,360.7 237.6,331.9 243.6,185.1 	"/>
	<polygon class="st2" points="418.7,377.3 379.4,243.1 248.6,176 242.7,321 334.7,433.1 	"/>
	<polygon class="st2" points="398.4,221 383.9,241.9 398.4,291.5 435,256.6 	"/>
	<polygon class="st2" points="275.7,368.5 197.7,444.7 329.6,434.2 	"/>
	<polygon class="st1" points="272.7,364.9 257.4,346.3 205.9,397.6 234,402.3 	"/>
	<polygon class="st1" points="425.1,224.6 401.8,217.8 421.2,236.7 	"/>
	<polygon class="st1" points="189.8,299 185.8,288.6 175.2,310 185.6,309 	"/>
</g>
</svg>
