<?xml version="1.0" encoding="UTF-8"?>
<svg id="Layer_2" data-name="Layer 2" xmlns="http://www.w3.org/2000/svg" viewBox="0 0 255 28">
  <defs>
    <style>
      .cls-1 {
        fill: none;
      }

      .cls-2 {
        fill: #f7cb15;
      }

      .cls-3 {
        fill: #27c1e6;
      }
    </style>
  </defs>
  <g id="base">
    <g>
      <rect class="cls-3" x="24" width="1" height="8"/>
      <rect class="cls-3" x="28" width="1" height="13"/>
      <path class="cls-3" d="M234.9,16H85v-1h149.69l8.31-8.31V0h1v7.16c0,.14-.05.26-.15.36l-8.6,8.34c-.09.09-.22.14-.35.14Z"/>
      <path class="cls-3" d="M81.3,19.31c-2.27,0-4.11-1.84-4.11-4.11s1.84-4.11,4.11-4.11,4.11,1.84,4.11,4.11-1.84,4.11-4.11,4.11ZM81.3,12.09c-1.72,0-3.11,1.4-3.11,3.11s1.4,3.11,3.11,3.11,3.11-1.4,3.11-3.11-1.4-3.11-3.11-3.11Z"/>
      <path class="cls-2" d="M235.65,26H35.3s-.26-.58-.35-.68l-6.73-6.73.71-.71,6.58,6.11h199.66l13.84-13.1V0h1v11.52c0,.13-.05.26-.15.35l-13.85,13.99c-.09.09-.22.15-.36.15Z"/>
      <rect class="cls-1" width="255" height="28"/>
    </g>
  </g>
</svg>