<?xml version="1.0" encoding="UTF-8"?>
<svg id="Layer_2" data-name="Layer 2" xmlns="http://www.w3.org/2000/svg" viewBox="0 0 255 93">
  <defs>
    <style>
      .cls-1 {
        opacity: .6;
      }

      .cls-2 {
        fill: none;
      }

      .cls-3 {
        fill: #1cc2eb;
      }

      .cls-4 {
        fill: #f7cb15;
      }

      .cls-5 {
        fill: #27c1e6;
      }
    </style>
  </defs>
  <g id="base">
    <g>
      <path class="cls-5" d="M55.13,55H15.83c-.28,0-.5-.22-.5-.5s.22-.5.5-.5h38.44L28.77,9.84,3.27,54h8.94c.28,0,.5.22.5.5s-.22.5-.5.5H2.4c-.18,0-.34-.1-.43-.25s-.09-.35,0-.5L28.33,8.59c.19-.33.67-.33.87,0l26.36,45.66c.09.15.09.35,0,.5s-.25.25-.43.25Z"/>
      <path class="cls-5" d="M14.02,56.62c-1.27,0-2.31-1.03-2.31-2.31s1.04-2.31,2.31-2.31,2.31,1.04,2.31,2.31-1.03,2.31-2.31,2.31ZM14.02,53.01c-.72,0-1.31.59-1.31,1.31s.59,1.31,1.31,1.31,1.31-.59,1.31-1.31-.59-1.31-1.31-1.31Z"/>
      <path class="cls-3" d="M30.25,8.65c0-.82-.66-1.48-1.48-1.48s-1.48.66-1.48,1.48.66,1.48,1.48,1.48,1.48-.66,1.48-1.48Z"/>
      <g class="cls-1">
        <path class="cls-4" d="M35.06,53.35c-.17,0-.34-.09-.43-.25l-14.46-24.77c-.09-.16-.09-.35,0-.51l4.78-7.97c.14-.24.45-.31.69-.17.24.14.31.45.17.69l-4.63,7.72,14.31,24.52c.14.24.06.54-.18.68-.08.05-.17.07-.25.07Z"/>
      </g>
      <path class="cls-5" d="M32.85,39.65c-.18,0-.34-.1-.43-.25l-5.57-9.65c-.09-.15-.09-.35,0-.5s.25-.25.43-.25h11.14c.18,0,.34.1.43.25s.09.35,0,.5l-5.57,9.65c-.09.15-.25.25-.43.25ZM28.15,30l4.7,8.15,4.7-8.15h-9.41Z"/>
      <path class="cls-4" d="M35.08,16.07c-.13,0-.26-.05-.35-.15-.2-.2-.2-.51,0-.71l13.07-13.07c.09-.09.22-.15.35-.15h66.4c.28,0,.5.22.5.5s-.22.5-.5.5H48.35l-12.92,12.92c-.1.1-.23.15-.35.15Z"/>
      <path class="cls-4" d="M118.37,3.79c-.19.73-.79,1.34-1.52,1.53-.8.21-1.6-.01-2.16-.57-.64-.64-.83-1.61-.42-2.53.34-.76,1.15-1.22,1.98-1.22h0c.58,0,1.14.23,1.55.64.55.55.78,1.35.57,2.15ZM116.25,2.08h0c-.66,0-1.2.54-1.2,1.2,0,.32.12.62.35.85.23.23.53.35.85.35.66,0,1.2-.54,1.2-1.2,0-.32-.12-.62-.35-.85-.23-.23-.53-.35-.84-.35Z"/>
      <g>
        <path class="cls-4" d="M45.07,30h-3.84c-.28,0-.5-.22-.5-.5s.22-.5.5-.5h3.84c.28,0,.5.22.5.5s-.22.5-.5.5Z"/>
        <path class="cls-4" d="M244.5,46.93c-.28,0-.5-.22-.5-.5v-8.86l-.31-.31c-.2-.2-.2-.51,0-.71s.51-.2.71,0l.46.46c.09.09.15.22.15.35v9.07c0,.28-.22.5-.5.5ZM236.91,30.56c-.13,0-.26-.05-.35-.15l-.42-.42h-8.71c-.28,0-.5-.22-.5-.5s.22-.5.5-.5h8.92c.13,0,.26.05.35.15l.56.56c.2.2.2.51,0,.71-.1.1-.23.15-.35.15ZM217.71,30h-9.72c-.28,0-.5-.22-.5-.5s.22-.5.5-.5h9.72c.28,0,.5.22.5.5s-.22.5-.5.5ZM198.28,30h-9.72c-.28,0-.5-.22-.5-.5s.22-.5.5-.5h9.72c.28,0,.5.22.5.5s-.22.5-.5.5ZM178.84,30h-9.72c-.28,0-.5-.22-.5-.5s.22-.5.5-.5h9.72c.28,0,.5.22.5.5s-.22.5-.5.5ZM159.41,30h-9.72c-.28,0-.5-.22-.5-.5s.22-.5.5-.5h9.72c.28,0,.5.22.5.5s-.22.5-.5.5ZM139.98,30h-9.72c-.28,0-.5-.22-.5-.5s.22-.5.5-.5h9.72c.28,0,.5.22.5.5s-.22.5-.5.5ZM120.55,30h-9.72c-.28,0-.5-.22-.5-.5s.22-.5.5-.5h9.72c.28,0,.5.22.5.5s-.22.5-.5.5ZM101.12,30h-9.72c-.28,0-.5-.22-.5-.5s.22-.5.5-.5h9.72c.28,0,.5.22.5.5s-.22.5-.5.5ZM81.68,30h-9.72c-.28,0-.5-.22-.5-.5s.22-.5.5-.5h9.72c.28,0,.5.22.5.5s-.22.5-.5.5ZM62.25,30h-9.72c-.28,0-.5-.22-.5-.5s.22-.5.5-.5h9.72c.28,0,.5.22.5.5s-.22.5-.5.5Z"/>
        <path class="cls-4" d="M244.5,54.83c-.28,0-.5-.22-.5-.5v-3.84c0-.28.22-.5.5-.5s.5.22.5.5v3.84c0,.28-.22.5-.5.5Z"/>
      </g>
      <path class="cls-5" d="M243.99,74.35c-.18,0-.34-.1-.43-.25l-8.86-15.35c-.09-.15-.09-.35,0-.5s.25-.25.43-.25h17.72c.18,0,.34.1.43.25s.09.35,0,.5l-8.86,15.35c-.09.15-.25.25-.43.25ZM236,59l7.99,13.85,7.99-13.85h-15.99Z"/>
      <rect class="cls-5" x="243" y="79" width="1" height="14"/>
      <rect class="cls-4" x="249" y="85" width="1" height="8"/>
      <rect class="cls-5" x="24" y="58" width="1" height="35"/>
      <rect class="cls-5" x="28" y="54" width="1" height="39"/>
      <rect class="cls-2" width="255" height="93"/>
    </g>
  </g>
</svg>